<svg xmlns="http://www.w3.org/2000/svg" viewBox="0 0 512 512">
  <defs>
    <linearGradient id="panchangBg" x1="0%" y1="0%" x2="100%" y2="100%">
      <stop offset="0%" stop-color="#3b2413"/>
      <stop offset="100%" stop-color="#140c08"/>
    </linearGradient>
    <linearGradient id="panchangGlow" x1="0%" y1="0%" x2="100%" y2="100%">
      <stop offset="0%" stop-color="#ffe0a8"/>
      <stop offset="100%" stop-color="#ff9f43"/>
    </linearGradient>
  </defs>
  <rect width="512" height="512" rx="120" fill="url(#panchangBg)"/>
  <rect x="108" y="150" width="296" height="248" rx="44" fill="#2a170c" stroke="url(#panchangGlow)" stroke-width="16"/>
  <path d="M168 110v72M344 110v72" fill="none" stroke="#ffd39a" stroke-width="18" stroke-linecap="round"/>
  <path d="M146 214h220" fill="none" stroke="#ffd39a" stroke-width="14" stroke-linecap="round"/>
  <circle cx="194" cy="278" r="28" fill="#ffb24d"/>
  <path d="M314 250c18 0 34 15 34 34s-16 34-34 34c-3 0-7-.5-10-1.5 11-6.5 18-18.5 18-32.5s-7-26-18-32.5c3-1 7-1.5 10-1.5z" fill="#fff4dc"/>
  <path d="M190 352h132" fill="none" stroke="#ffcf7d" stroke-width="18" stroke-linecap="round"/>
</svg>
